PathFileType	4	(X/Y/Z)	E:\Qualisys_Data\Carbon_Farble_Plate\Data\Amateur_Runner\S14\T1\S14T1V21_c3d.trc
DataRate	CameraRate	NumFrames	NumMarkers	Units	OrigDataRate	OrigDataStartFrame	OrigNumFrames
200.000000	200.000000	4	39	mm	200.000000	267	306
Frame#	Time	LSHO			RSHO			LICST			RICST			LASIS			LHEEL			RASIS			LTROC			RTROC			SACR			LTH1			LSK4			LTH2			LTH3			RHM5			LSK2			LTH4			RTH1			LTOE			RTH2			RTH3			RTH4			LLEP			RLEP			LSK1			LSK3			RSK1			LHM5			RSK2			LFT1			RSK3			RSK4			LLME			RLME			RTOE			RHEEL			RFT1			RFT2			LFT2			
		X1	Y1	Z1	X2	Y2	Z2	X3	Y3	Z3	X4	Y4	Z4	X5	Y5	Z5	X6	Y6	Z6	X7	Y7	Z7	X8	Y8	Z8	X9	Y9	Z9	X10	Y10	Z10	X11	Y11	Z11	X12	Y12	Z12	X13	Y13	Z13	X14	Y14	Z14	X15	Y15	Z15	X16	Y16	Z16	X17	Y17	Z17	X18	Y18	Z18	X19	Y19	Z19	X20	Y20	Z20	X21	Y21	Z21	X22	Y22	Z22	X23	Y23	Z23	X24	Y24	Z24	X25	Y25	Z25	X26	Y26	Z26	X27	Y27	Z27	X28	Y28	Z28	X29	Y29	Z29	X30	Y30	Z30	X31	Y31	Z31	X32	Y32	Z32	X33	Y33	Z33	X34	Y34	Z34	X35	Y35	Z35	X36	Y36	Z36	X37	Y37	Z37	X38	Y38	Z38	X39	Y39	Z39	

268	1.335	2437.87158203125	1415.483154296875	-543.8756713867188	2403.772705078125	1421.708618164062	-245.1703948974609	2399.128662109375	965.2909545898438	-516.4180297851562	2421.41552734375	967.3096923828124	-238.4328918457031	2439.7109375	914.7298583984376	-491.4352722167969	1994.039428710938	156.1492614746094	-376.8633117675781	2448.436279296875	926.4437255859376	-258.8546142578125	2287.614501953125	848.2861328125	-522.7647705078125	2312.49072265625	868.8353271484375	-207.8280334472656	2271.467041015625	972.5054931640624	-379.9059753417969	2344.167724609375	619.1009521484375	-523.341552734375	2135.80224609375	320.8454895019531	-463.9586486816406	2268.990966796875	629.78955078125	-501.16259765625	2342.0830078125	522.537353515625	-496.4014892578125	2355.061279296875	135.3771209716797	-222.1499481201172	2195.186767578125	396.9673767089844	-487.2836608886719	2263.610107421875	533.3892822265625	-479.2866516113281	2547.0380859375	705.3118286132812	-203.8670501708984	2210.306396484375	45.01657867431641	-406.4061889648438	2479.74169921875	667.1550903320312	-192.6390380859375	2598.8359375	621.0008544921875	-226.0039825439453	2527.2763671875	578.2354736328125	-206.3021850585938	2300.48974609375	457.5405883789062	-485.1329956054688	2572.111328125	530.255126953125	-213.6231842041016	2261.474365234375	348.1314697265625	-480.0677490234375	2197.95263671875	269.3740844726562	-461.2802429199219	2529.69140625	423.4485473632812	-217.3527069091797	2142.233154296875	45.04208755493164	-464.4627990722656	2466.539794921875	481.2020568847656	-215.1576538085938	1998.451171875	131.6053161621094	-347.6115112304688	2454.558349609375	352.6898803710938	-233.3846588134766	2401.1630859375	411.6683654785156	-229.0575866699219	2058.756591796875	154.8780822753906	-436.9650573730469	2303.041748046875	268.5308532714844	-251.8112335205078	2412.81201171875	90.24623870849608	-282.2537536621094	2245.002685546875	286.2754211425781	-307.8951110839844	2234.94287109375	255.4939422607422	-336.3357238769531	2228.5380859375	270.1471862792969	-280.0379638671875	1982.427856445312	128.6890258789062	-400.0851135253906
269	1.34	2457.713623046875	1420.101318359375	-542.9769897460938	2422.010009765625	1425.72802734375	-245.1272583007812	2420.177978515625	969.2200317382812	-516.0723266601562	2440.84814453125	971.0923461914062	-239.7058563232422	2460.255126953125	918.0927734375	-491.726318359375	2002.573364257812	165.8030853271484	-379.2778930664062	2468.7294921875	930.1767578125	-259.21044921875	2304.716552734375	853.1867065429688	-524.7048950195312	2333.12841796875	873.01416015625	-207.2734375	2291.5390625	976.2080078125	-380.2207336425781	2358.4375	623.6241455078125	-524.702880859375	2144.838623046875	328.3510437011719	-466.2699890136719	2283.7099609375	635.7289428710938	-502.0972595214844	2353.981689453125	526.7616577148438	-498.096923828125	2396.716796875	129.4482269287109	-222.5093078613281	2205.1630859375	403.9759216308594	-488.9646911621094	2276.533203125	539.4439086914062	-480.6286926269531	2568.60302734375	710.1156616210938	-205.24072265625	2212.056396484375	44.5903205871582	-407.2496337890625	2501.71435546875	672.548095703125	-192.8008422851562	2620.7578125	626.2308349609375	-227.4084930419922	2550.000244140625	582.9605712890625	-207.417236328125	2311.66943359375	462.9270935058594	-487.904052734375	2593.976806640625	534.5249633789062	-215.0140533447266	2270.649658203125	354.13623046875	-483.0546569824219	2206.062255859375	276.0555419921875	-465.233154296875	2555.953857421875	425.4329528808594	-217.997802734375	2144.591552734375	46.12227249145508	-466.206298828125	2489.86083984375	480.3119201660156	-215.5750579833984	2006.241943359375	141.4127807617188	-349.9266357421875	2484.52783203125	351.2808227539062	-234.2868347167969	2427.92822265625	407.3032836914062	-229.3737335205078	2066.885009765625	161.220703125	-439.33447265625	2337.642333984375	259.3273315429688	-252.1845855712891	2456.679443359375	86.51638793945312	-283.2069091796875	2278.543701171875	274.1379699707031	-307.6243286132812	2270.218505859375	241.881591796875	-336.8636169433594	2263.00927734375	256.6873168945312	-280.535400390625	1989.688110351562	138.5306091308594	-402.2149047851562
270	1.345	2478.326171875	1424.681396484375	-542.15478515625	2439.366455078125	1429.625854492188	-245.3324584960938	2441.059814453125	973.2572631835938	-515.7776489257812	2461.378662109375	975.1362915039062	-239.8975982666016	2480.670166015625	921.9900512695312	-491.765869140625	2012.07568359375	175.3921661376953	-381.8578491210938	2489.269287109375	934.256103515625	-259.4491577148438	2325.479248046875	857.44677734375	-524.2686767578125	2354.005859375	877.7639770507812	-205.89599609375	2312.33349609375	980.0811767578124	-380.3260192871094	2373.060791015625	628.6089477539062	-526.658203125	2154.171875	335.7427062988281	-468.339599609375	2296.45361328125	641.3001098632812	-501.8185424804688	2367.426513671875	531.1597900390625	-500.5807495117188	2438.730712890625	123.9293823242188	-222.8377838134766	2215.1748046875	410.8659973144531	-490.8567810058594	2289.654541015625	545.0077514648438	-481.9954223632812	2590.27197265625	715.1154174804688	-205.9229888916016	2214.60693359375	43.59136581420898	-408.3207092285156	2523.423583984375	676.9769897460938	-193.2500152587891	2642.17822265625	631.0215454101562	-228.2727813720703	2571.70068359375	587.8899536132812	-207.8237762451172	2319.1416015625	467.8213500976562	-489.6377563476562	2615.404052734375	539.3050537109375	-215.8177795410156	2280.0009765625	360.0660705566406	-486.0208435058594	2214.983154296875	282.9842529296875	-468.2672729492188	2582.25	427.5035095214844	-218.4628295898438	2147.177978515625	46.85428619384766	-467.2950744628906	2513.366943359375	478.6893005371094	-215.9399871826172	2014.845947265625	151.6794586181641	-351.7194519042969	2514.03515625	350.0575256347656	-234.5240783691406	2455.54931640625	402.8218688964844	-229.6192779541016	2075.5751953125	168.2474670410156	-441.9823608398438	2372.413818359375	250.4331512451172	-252.8148498535156	2499.05224609375	83.69728088378906	-283.2333374023438	2312.071044921875	261.7240905761719	-308.100830078125	2305.47607421875	229.1736755371094	-337.0115966796875	2297.8623046875	243.3588562011719	-280.9812316894531	1998.262817382812	148.4696350097656	-404.4754943847656
271	1.35	2498.418701171875	1428.884765625	-540.9846801757812	2457.75048828125	1433.263916015625	-245.3865203857422	2461.675537109375	976.9122314453124	-515.6671142578125	2481.855224609375	979.0861206054688	-240.1685028076172	2500.3115234375	925.6236572265624	-491.4259643554688	2022.289184570312	185.174072265625	-384.46728515625	2509.335693359375	938.046875	-259.6409912109375	2344.52001953125	861.957275390625	-524.7618408203125	2375.05615234375	881.7260131835938	-204.9500122070312	2332.861083984375	983.5305786132812	-380.2558288574219	2388.0517578125	633.1685180664062	-527.4666137695312	2164.452392578125	342.9015197753906	-469.9889526367188	2313.985107421875	646.9566650390625	-503.1690368652344	2380.45361328125	535.8751220703125	-502.4289855957031	2480.427734375	118.4163818359375	-223.7660064697266	2225.798095703125	417.7360229492188	-492.650146484375	2303.390380859375	550.54248046875	-483.7033081054688	2611.722900390625	719.7753295898438	-206.6416168212891	2217.485107421875	42.91645050048828	-409.7360229492188	2545.276123046875	680.9608764648438	-194.034423828125	2663.555419921875	635.7501220703125	-229.4145965576172	2593.112060546875	591.8978881835938	-209.1088714599609	2334.83935546875	472.7918090820312	-492.5727233886719	2637.0	543.0401000976562	-217.3119659423828	2290.238037109375	366.4893493652344	-489.0263061523438	2224.680908203125	289.348876953125	-471.9753723144531	2607.86328125	429.0038757324219	-219.3511199951172	2150.059326171875	48.17535018920898	-468.8610229492188	2536.6533203125	476.5244445800781	-216.2408752441406	2024.114990234375	161.8464813232422	-353.97509765625	2544.112548828125	348.2647094726562	-235.3971557617188	2482.370849609375	397.9327697753906	-230.4672698974609	2084.416748046875	173.850341796875	-444.4425964355469	2407.111328125	241.20458984375	-253.1108703613281	2542.94677734375	81.30711364746094	-283.9895629882812	2345.93603515625	249.3484191894531	-307.2668762207031	2341.64453125	216.3295593261719	-337.1516723632812	2333.141845703125	229.9882202148438	-281.123046875	2007.3662109375	159.4425048828125	-407.198974609375
